<svg width="30" height="30" viewBox="0 0 30 30" fill="none" xmlns="http://www.w3.org/2000/svg">
<path d="M28.6339 9.82227L28.9478 9.85365L29.136 9.94779L29.3243 10.1675L29.4185 10.3871V10.8892L29.1674 12.3641L28.885 14.0273L28.5084 16.0357L28.0063 18.4834L27.7867 19.4562L27.5984 19.7386L26.908 20.429H26.8452V20.4917L26.5942 20.7114L26.2176 21.088L25.9666 21.3076L25.4959 21.747L25.2448 21.9666L24.8996 22.2804L24.6486 22.5001L24.3348 22.7825L24.0837 23.0022L23.613 23.4415L23.2678 23.7867L23.0168 24.0064L22.7344 24.3202L22.3578 24.6967L22.1381 24.9478L21.7929 25.3244L21.5105 25.6695L21.2595 25.9834L21.0398 26.3285L20.9143 26.5796L20.8201 26.9562L20.7574 27.8034L17.7448 27.8348H15.7992L15.7051 27.7721V26.4854L15.7365 25.1047L15.7992 24.2574L15.8934 23.6298L16.0503 23.0963L16.2072 22.7198L16.4582 22.3432L16.8034 21.9666L17.1172 21.6528L17.4624 21.3704L17.9331 20.9938L19.0628 20.2407L20.4122 19.2993L21.7616 18.3578L23.1109 17.4164L23.8327 16.9143L24.3975 16.5691L24.9938 16.2553L25.2762 16.1612L25.5586 16.1926L25.8097 16.3495L25.9666 16.6319L25.998 16.8202L25.9352 17.134L25.7469 17.4478L25.4331 17.7616L25.0879 18.044L24.7114 18.3892L24.3662 18.6716L23.9582 19.0482L23.7072 19.2679L23.3934 19.5503L23.1423 19.77L22.8285 20.0524L22.5775 20.2721L22.2009 20.6172L21.8557 20.9311L21.7616 21.088L21.7929 21.2762L21.9498 21.4331L22.1695 21.4645L22.4519 21.2762L22.9854 20.7741L23.2365 20.5545L23.7072 20.1152L24.021 19.8327L24.272 19.6131L24.7427 19.1737L25.4959 18.4834L25.7469 18.2637L26.2176 17.8244L26.4687 17.5419L26.5942 17.2281L26.6256 17.0712V16.8202L26.5628 16.5377L26.3745 16.2239L26.1549 16.0357L26.0293 15.9101L26.2176 15.408L26.5942 14.1842L27.0021 12.8348L27.4729 11.3599L27.7553 10.544L27.975 10.1988L28.226 9.97917L28.477 9.85365L28.6339 9.82227Z" fill="#0086AD"/>
<path d="M1.17631 9.82227L1.5215 9.85365L1.83531 10.0106L2.05497 10.1988L2.27464 10.5754L2.77673 12.0503L3.3102 13.7762L3.74953 15.2511L3.9692 15.8788L3.93782 16.0043L3.74953 16.1298L3.52987 16.3808L3.40435 16.726V17.134L3.49849 17.4478L3.68677 17.6988L3.84368 17.8557V17.9185L3.9692 17.9813L4.50267 18.4834L4.75372 18.703L5.56962 19.4562L5.94619 19.8013L6.5738 20.3662L6.73071 20.4917V20.5545L6.85623 20.6172L7.07589 20.8369L7.32694 21.0566L7.64075 21.339L7.86041 21.4645L8.08008 21.4331L8.23698 21.2762L8.26836 21.1193L8.08008 20.8369L7.32694 20.1465L7.07589 19.9269L6.76209 19.6444L6.32276 19.2679L5.94619 18.9227L5.69514 18.703L5.25581 18.3265L4.942 18.044L4.69096 17.8244L4.37715 17.5419L4.18886 17.3223L4.06334 17.0712L4.03196 16.9457V16.6947L4.18886 16.3808L4.47129 16.1926L4.53405 16.1612H4.75372L5.16167 16.3181L5.69514 16.6005L6.22861 16.9457L6.95037 17.4478L8.92736 18.8285L10.2767 19.77L10.9043 20.2093L11.3751 20.5231L11.8144 20.8055L12.3165 21.1821L12.6617 21.4645L13.101 21.8411L13.4148 22.1549L13.6659 22.4687L13.9169 22.9394L14.0738 23.4101L14.1679 23.8495L14.2621 24.7595L14.2935 25.4499V27.8034L14.011 27.8348H9.46083L9.24117 27.7721L9.20979 27.0189L9.14702 26.7051L8.99012 26.3285L8.73907 25.952L8.48803 25.6382L8.11146 25.1988L7.67213 24.7281L7.45246 24.4771L6.16585 23.1905L5.91481 22.9708L5.53824 22.6256L5.28719 22.4059L4.34577 21.5587L4.09472 21.339L3.59263 20.8683L3.37297 20.6486L3.12192 20.429L2.3374 19.6444L2.21188 19.362L1.96083 18.2323L1.5215 16.0984L1.17631 14.247L0.611459 10.952L0.580078 10.7323V10.4813L0.705601 10.1361L0.925266 9.91641L1.17631 9.82227Z" fill="#0086AD"/>
<path d="M23.4244 5.36621L23.4872 5.49173L23.55 6.65282V7.84529L23.4872 8.53567L23.3303 9.32019L23.142 9.88504L22.891 10.3871L22.5772 10.8892L22.2006 11.2972L21.9495 11.5482L21.4788 11.8934L20.9454 12.2072L20.4119 12.4583L19.7529 12.7093L18.8428 12.9604L17.7131 13.18L14.983 13.6193L13.414 13.9332L13.1629 13.9645L13.3512 13.6193L13.6336 13.18L13.8847 12.8662L14.2299 12.4896L14.5751 12.1758L15.0458 11.8306L15.5165 11.5482L16.1127 11.2344L17.1169 10.8265L18.4349 10.3558L19.1253 10.0733L19.6274 9.82228L19.9726 9.60261L20.3177 9.32019L20.4746 9.10052L20.1608 9.32019L19.6587 9.57123L18.8115 9.85366L17.211 10.293L16.1127 10.6382L15.3596 10.952L14.732 11.2658L14.2613 11.5796L13.8219 11.9248L13.3198 12.4269L12.9433 12.9604L12.6295 13.5566L12.4412 14.0587L12.2529 14.8118L12.1587 15.5336L12.1274 16.224V16.6005L12.2215 16.4436L12.5353 15.8474L12.8805 15.4081L13.1943 15.0942L13.6023 14.8118L14.1357 14.5608L14.732 14.4039L15.1713 14.3411L15.5792 14.3097L17.4307 14.247L18.1211 14.1528L18.5918 13.9959L18.8428 13.8704H18.9056V14.3097L18.8428 15.0001L18.6859 15.6277L18.4349 16.1298L18.2466 16.3809L18.0583 16.6005L17.7445 16.8202L17.3679 17.0085L16.8659 17.1654L16.4265 17.2595L15.6106 17.3537L15.0458 17.385H13.1629L13.2571 17.2281L13.5395 16.9143L13.9161 16.6319L14.5123 16.3495L15.2968 16.1298L16.301 15.9101L16.7717 15.7532L17.0541 15.5963L17.1797 15.4708L16.8972 15.565L16.3638 15.7219L15.9872 15.7846L15.1713 15.8788L14.4809 16.0357L13.9788 16.224L13.5395 16.475L13.2257 16.726L12.9746 17.0085L12.7236 17.4792L12.5981 17.8871L12.5667 18.1382V19.111L12.5981 19.362L12.4412 19.2051L12.0646 18.5775L11.8136 18.0754L11.5939 17.5733L11.3742 16.9143L11.1859 16.067L11.0918 15.3139V14.0901L11.1859 13.2428L11.3428 12.521L11.4997 11.9562L11.8136 11.1717L12.096 10.5754L12.4412 10.0106L12.7236 9.63399L13.006 9.28881L13.665 8.62981L14.1357 8.28462L14.5437 8.03358L15.1399 7.78253L15.8617 7.56286L16.709 7.37458L18.1525 7.12353L19.9098 6.84111L21.0395 6.59006L21.7613 6.3704L22.483 6.05659L22.7968 5.8683L23.142 5.61726L23.4244 5.36621Z" fill="#17AE17"/>
<path d="M12.1286 0H17.6203L17.8086 0.0313808L17.8399 6.46444L17.8086 6.5272L17.1496 6.65272L16.0512 6.87239L15.2353 7.09205L14.545 7.3431L13.9487 7.6569L13.5094 7.97071L13.1014 8.3159L12.7876 8.59833L12.4424 8.9749L12.0345 9.50837L11.6579 10.1046L11.25 10.8891L10.9362 11.705L10.7793 12.2071L10.7165 12.2699H5.19349L5.16211 12.2385V7.06067L5.19349 7.02929H12.0973V0.0313808L12.1286 0Z" fill="#0086AD"/>
<path d="M9.33607 28.7134H13.2587L14.2942 28.7448V29.9686L9.33607 30L9.30469 29.9686V28.7448L9.33607 28.7134Z" fill="#0086AD"/>
<path d="M24.2099 7.0293H24.8062L24.8375 7.06068V12.2385L24.8062 12.2699H22.1074L22.1702 12.1444L22.4526 11.9247L22.6409 11.7678L22.8606 11.5167L23.2057 11.0774L23.4882 10.6067L23.7078 10.136L23.9589 9.38285L24.0844 8.75524L24.1472 8.19038L24.2099 7.0293Z" fill="#0086AD"/>
<path d="M18.3097 28.7134H20.0042L20.6946 28.7448L20.726 28.7761V29.9372L20.6946 29.9686L15.7678 30L15.7365 29.9686L15.7051 29.1527V28.7761L15.7365 28.7448L18.3097 28.7134Z" fill="#0086AD"/>
</svg>
